<?xml version="1.0" encoding="UTF-8" standalone="no"?>
<!-- Created with Inkscape (http://www.inkscape.org/) -->

<svg
   width="71.096527mm"
   height="71.096527mm"
   viewBox="0 0 71.096527 71.096527"
   version="1.1"
   id="svg1"
   xmlns="http://www.w3.org/2000/svg"
   xmlns:svg="http://www.w3.org/2000/svg">
  <defs
     id="defs1" />
  <g
     id="layer1"
     transform="translate(-56.953668,-92.501935)">
    <circle
       style="fill:#2d8659;fill-opacity:1;fill-rule:evenodd;stroke-width:0.264583"
       id="path3"
       cx="92.50193"
       cy="128.0502"
       r="35.548264" />
    <path
       id="path2"
       style="fill:#fafbfc;fill-opacity:1;stroke-width:0.264583"
       d="m 91.810417,111.125 c -0.309007,0.20878 -0.309008,0.20878 -0.611849,0.41341 -1.587843,1.44014 -1.587846,1.44015 -3.108854,11.21172 -0.101759,0.65446 -0.203917,1.30902 -0.307475,1.96319 -0.03358,0.21213 -0.0661,0.41784 -0.0987,0.62373 -0.211931,1.38602 -0.489677,2.70232 -0.900204,4.0442 -0.199945,-0.87526 -0.402078,-1.74994 -0.606681,-2.62413 -0.08467,-0.35995 -0.169075,-0.71997 -0.253215,-1.08004 -0.486938,-2.13528 -0.897361,-4.19946 -2.05052,-6.08541 -0.808434,-0.39384 -1.139826,-0.3241 -1.984375,-0.0496 -0.82116,0.7185 -0.82116,0.7185 -1.636076,2.45566 -0.244925,0.54069 -0.491005,1.08082 -0.73794,1.62057 -0.137398,0.28955 -0.270759,0.5706 -0.404109,0.85163 -0.400896,0.87352 -0.679177,1.38016 -1.432471,1.98231 -0.653705,0.34099 -0.6537,0.34099 -1.269173,0.18707 -1.26558,-0.55512 -2.243394,-0.81003 -3.648356,-0.69763 -0.365196,0.12173 -0.56031,0.18951 -0.718303,0.3023 -0.02491,-0.0125 -0.05055,-0.0253 -0.07545,-0.0377 -0.179916,0.17992 -0.354542,0.35454 -0.529167,0.52917 l 0.05943,0.17828 c -0.0225,0.0337 -0.03476,0.0493 -0.05943,0.0863 0.04491,0.0494 0.08923,0.0918 0.133842,0.13746 0.04341,0.13023 0.08765,0.26243 0.130741,0.39171 0.49128,0.35902 0.693275,0.50621 1.201477,0.55035 0.268977,0.12941 0.551554,0.25171 0.876433,0.37569 0.20431,0.0731 0.402666,0.14397 0.600997,0.21497 1.760324,0.63189 2.934257,0.89996 4.729427,0.1819 v -0.52916 c 0.477466,-0.18087 0.477467,-0.18087 1.058333,-0.52917 0.928422,-1.29938 1.604751,-2.72349 1.951302,-4.28294 0.05622,-0.34297 0.110785,-0.67585 0.165365,-1.00873 h 0.529166 c -0.05149,0.9613 0.08402,1.79858 0.322461,2.72955 0.09602,0.36071 0.191064,0.72195 0.285254,1.08314 0.05062,0.19472 0.09972,0.38359 0.148828,0.57258 0.152638,0.58398 0.30107,1.16773 0.438733,1.75544 0.04482,0.19656 0.08827,0.38747 0.131775,0.57826 0.08697,0.37307 0.173769,0.74617 0.260449,1.11931 0.23151,1.01906 0.23151,1.01907 0.529167,1.95131 0.668786,1.15569 1.072278,1.75306 2.38125,2.11666 1.698305,-1.33112 1.69845,-1.33119 2.924369,-9.02632 0.506359,-3.19201 0.956752,-6.3795 1.838131,-9.49451 0.299164,0.54109 0.299145,0.54126 0.409794,1.24282 0.08051,0.46425 0.08073,0.46427 0.15968,0.91932 0.06194,0.35419 0.121791,0.69752 0.181901,1.04128 0.09872,0.57084 0.197565,1.14196 0.297657,1.71256 0.288606,1.63888 0.57686,3.27794 0.861446,4.91753 0.176503,1.01825 0.353649,2.03638 0.5333,3.05408 0.06924,0.39122 0.138403,0.78227 0.207223,1.17357 0.479371,2.79677 0.586893,6.79797 2.905249,8.69301 0.694531,0.0992 0.694532,0.0992 1.322917,0 1.302604,-1.30262 1.723384,-3.25596 2.097034,-5.00848 0.0523,-0.25821 0.10319,-0.50904 0.15399,-0.75965 0.0411,-0.19389 0.0815,-0.38797 0.12248,-0.58187 h 0.008 c 0.11712,-0.55912 0.23281,-1.1162 0.34364,-1.67329 0.0145,-0.0696 0.0295,-0.13914 0.0439,-0.20877 0.17528,-0.84901 0.35174,-1.69754 0.52917,-2.5461 0.11409,-0.54035 0.22811,-1.08072 0.34209,-1.62109 0.0793,-0.38761 0.0794,-0.38745 0.1571,-0.76739 0.0511,-0.24305 0.10036,-0.47929 0.14986,-0.7152 0.17166,-0.83207 0.40938,-1.51017 0.81546,-2.25775 0.53636,2.35093 0.83796,5.23955 2.74505,6.89571 0.90001,0.32147 1.3716,0.26797 2.28203,-0.0165 0.99746,-0.90944 1.6378,-1.14799 2.96003,-1.32292 0.83817,-0.0827 0.83817,-0.0827 1.53789,-0.26458 0.36068,-0.5457 0.36067,-0.5457 0.52916,-1.05833 -1.23958,-0.6147 -2.37291,-1.25044 -3.77031,-0.89297 -0.85566,0.31374 -1.71453,0.60702 -2.57969,0.89297 -0.14256,-0.56585 -0.28635,-1.13135 -0.43149,-1.69654 -0.0613,-0.23842 -0.12086,-0.46983 -0.18036,-0.70125 -0.5401,-2.14567 -0.95977,-4.41419 -2.82773,-5.8043 -0.79375,-0.11576 -0.79375,-0.11575 -1.5875,0.26459 -1.2251,1.5849 -1.22528,1.5849 -2.411223,7.506 -0.152558,0.76445 -0.307912,1.52823 -0.464571,2.29185 -0.100938,0.48917 -0.201687,0.97837 -0.302308,1.46761 -0.278314,1.39502 -0.568135,2.73921 -1.055232,4.08037 -0.336735,-1.45869 -0.632661,-2.91422 -0.877983,-4.39095 -0.08258,-0.50401 -0.166024,-1.00777 -0.250114,-1.51153 -0.137239,-0.82152 -0.273693,-1.64326 -0.409794,-2.46497 -0.494003,-3.00387 -0.997243,-6.00527 -1.60507,-8.9886 -0.08453,-0.40765 -0.08456,-0.4076 -0.167432,-0.80718 -0.220635,-1.1138 -0.404336,-2.22376 -0.909505,-3.24838 -0.580045,-0.91717 -1.082326,-1.31608 -2.130102,-1.60714 z m -5.291667,16.66875 0.529167,0.26458 z m -11.90625,1.32292 0.529167,0.26458 z" />
  </g>
</svg>
